<svg xmlns="http://www.w3.org/2000/svg" xmlns:xlink="http://www.w3.org/1999/xlink" width="500" zoomAndPan="magnify" viewBox="0 0 375 374.999991" height="500" preserveAspectRatio="xMidYMid meet" version="1.0"><defs><clipPath id="c48001ca7c"><path d="M 79 67.40625 L 337.5 67.40625 L 337.5 134 L 79 134 Z M 79 67.40625 " clip-rule="nonzero"/></clipPath><clipPath id="3440bf6434"><path d="M 37.5 240 L 296 240 L 296 306.65625 L 37.5 306.65625 Z M 37.5 240 " clip-rule="nonzero"/></clipPath><clipPath id="635208fafe"><path d="M 191 148 L 200 148 L 200 156 L 191 156 Z M 191 148 " clip-rule="nonzero"/></clipPath><clipPath id="def0fe83e4"><path d="M 128.546875 191.027344 L 216.199219 133.222656 L 251.710938 187.066406 L 164.054688 244.871094 Z M 128.546875 191.027344 " clip-rule="nonzero"/></clipPath><clipPath id="3aacfeb066"><path d="M 128.546875 191.027344 L 216.199219 133.222656 L 251.710938 187.066406 L 164.054688 244.871094 Z M 128.546875 191.027344 " clip-rule="nonzero"/></clipPath><clipPath id="6660949f7b"><path d="M 221 151 L 229 151 L 229 159 L 221 159 Z M 221 151 " clip-rule="nonzero"/></clipPath><clipPath id="381201052b"><path d="M 128.546875 191.027344 L 216.199219 133.222656 L 251.710938 187.066406 L 164.054688 244.871094 Z M 128.546875 191.027344 " clip-rule="nonzero"/></clipPath><clipPath id="c9d8798413"><path d="M 128.546875 191.027344 L 216.199219 133.222656 L 251.710938 187.066406 L 164.054688 244.871094 Z M 128.546875 191.027344 " clip-rule="nonzero"/></clipPath><clipPath id="9c96bf2762"><path d="M 179 173 L 184 173 L 184 178 L 179 178 Z M 179 173 " clip-rule="nonzero"/></clipPath><clipPath id="0d798ae9ce"><path d="M 128.546875 191.027344 L 216.199219 133.222656 L 251.710938 187.066406 L 164.054688 244.871094 Z M 128.546875 191.027344 " clip-rule="nonzero"/></clipPath><clipPath id="75e430e7e9"><path d="M 128.546875 191.027344 L 216.199219 133.222656 L 251.710938 187.066406 L 164.054688 244.871094 Z M 128.546875 191.027344 " clip-rule="nonzero"/></clipPath><clipPath id="a9e186426d"><path d="M 196 195 L 200 195 L 200 199 L 196 199 Z M 196 195 " clip-rule="nonzero"/></clipPath><clipPath id="e7aa2677f7"><path d="M 128.546875 191.027344 L 216.199219 133.222656 L 251.710938 187.066406 L 164.054688 244.871094 Z M 128.546875 191.027344 " clip-rule="nonzero"/></clipPath><clipPath id="295f429ff9"><path d="M 128.546875 191.027344 L 216.199219 133.222656 L 251.710938 187.066406 L 164.054688 244.871094 Z M 128.546875 191.027344 " clip-rule="nonzero"/></clipPath><clipPath id="99527f8772"><path d="M 205 160 L 209 160 L 209 164 L 205 164 Z M 205 160 " clip-rule="nonzero"/></clipPath><clipPath id="c7c7137bd5"><path d="M 128.546875 191.027344 L 216.199219 133.222656 L 251.710938 187.066406 L 164.054688 244.871094 Z M 128.546875 191.027344 " clip-rule="nonzero"/></clipPath><clipPath id="cc2be23c53"><path d="M 128.546875 191.027344 L 216.199219 133.222656 L 251.710938 187.066406 L 164.054688 244.871094 Z M 128.546875 191.027344 " clip-rule="nonzero"/></clipPath><clipPath id="c55442980d"><path d="M 182 215 L 195 215 L 195 228 L 182 228 Z M 182 215 " clip-rule="nonzero"/></clipPath><clipPath id="4d375706d0"><path d="M 128.546875 191.027344 L 216.199219 133.222656 L 251.710938 187.066406 L 164.054688 244.871094 Z M 128.546875 191.027344 " clip-rule="nonzero"/></clipPath><clipPath id="389cb15675"><path d="M 128.546875 191.027344 L 216.199219 133.222656 L 251.710938 187.066406 L 164.054688 244.871094 Z M 128.546875 191.027344 " clip-rule="nonzero"/></clipPath><clipPath id="855ebbdc7e"><path d="M 151 194 L 157 194 L 157 200 L 151 200 Z M 151 194 " clip-rule="nonzero"/></clipPath><clipPath id="729f31df5c"><path d="M 128.546875 191.027344 L 216.199219 133.222656 L 251.710938 187.066406 L 164.054688 244.871094 Z M 128.546875 191.027344 " clip-rule="nonzero"/></clipPath><clipPath id="882a4c1bc7"><path d="M 128.546875 191.027344 L 216.199219 133.222656 L 251.710938 187.066406 L 164.054688 244.871094 Z M 128.546875 191.027344 " clip-rule="nonzero"/></clipPath><clipPath id="450f227578"><path d="M 154 150 L 218 150 L 218 231 L 154 231 Z M 154 150 " clip-rule="nonzero"/></clipPath><clipPath id="b25d1af612"><path d="M 128.546875 191.027344 L 216.199219 133.222656 L 251.710938 187.066406 L 164.054688 244.871094 Z M 128.546875 191.027344 " clip-rule="nonzero"/></clipPath><clipPath id="069bd69d16"><path d="M 128.546875 191.027344 L 216.199219 133.222656 L 251.710938 187.066406 L 164.054688 244.871094 Z M 128.546875 191.027344 " clip-rule="nonzero"/></clipPath><clipPath id="61d9f264c0"><path d="M 166 164 L 205 164 L 205 214 L 166 214 Z M 166 164 " clip-rule="nonzero"/></clipPath><clipPath id="b69c2d6c8f"><path d="M 128.546875 191.027344 L 216.199219 133.222656 L 251.710938 187.066406 L 164.054688 244.871094 Z M 128.546875 191.027344 " clip-rule="nonzero"/></clipPath><clipPath id="fb3d0bd331"><path d="M 128.546875 191.027344 L 216.199219 133.222656 L 251.710938 187.066406 L 164.054688 244.871094 Z M 128.546875 191.027344 " clip-rule="nonzero"/></clipPath><clipPath id="72282d2ab4"><path d="M 174 175 L 195 175 L 195 201 L 174 201 Z M 174 175 " clip-rule="nonzero"/></clipPath><clipPath id="4c2a0a4b7f"><path d="M 128.546875 191.027344 L 216.199219 133.222656 L 251.710938 187.066406 L 164.054688 244.871094 Z M 128.546875 191.027344 " clip-rule="nonzero"/></clipPath><clipPath id="5be14984be"><path d="M 128.546875 191.027344 L 216.199219 133.222656 L 251.710938 187.066406 L 164.054688 244.871094 Z M 128.546875 191.027344 " clip-rule="nonzero"/></clipPath></defs><rect x="-37.5" width="450" fill="#ffffff" y="-37.499999" height="449.999989" fill-opacity="1"/><rect x="-37.5" width="450" fill="#ffffff" y="-37.499999" height="449.999989" fill-opacity="1"/><g clip-path="url(#c48001ca7c)"><path fill="#03a1fe" d="M 128.09375 67.40625 L 337.421875 67.40625 L 288.578125 133.492188 L 79.25 133.492188 Z M 128.09375 67.40625 " fill-opacity="1" fill-rule="evenodd"/></g><path fill="#006ab3" d="M 79.25 133.492188 L 183.914062 133.492188 L 130.949219 204.84375 L 84.960938 141.394531 Z M 79.25 133.492188 " fill-opacity="1" fill-rule="evenodd"/><g clip-path="url(#3440bf6434)"><path fill="#03a1fe" d="M 246.925781 306.65625 L 37.597656 306.65625 L 86.546875 240.570312 L 295.875 240.570312 Z M 246.925781 306.65625 " fill-opacity="1" fill-rule="evenodd"/></g><path fill="#006ab3" d="M 295.875 240.570312 L 191.210938 240.570312 L 244.070312 169.21875 L 290.164062 232.667969 Z M 295.875 240.570312 " fill-opacity="1" fill-rule="evenodd"/><g clip-path="url(#635208fafe)"><g clip-path="url(#def0fe83e4)"><g clip-path="url(#3aacfeb066)"><path fill="#000000" d="M 193.222656 148.394531 C 194.542969 150.398438 197.230469 150.941406 199.226562 149.625 C 197.21875 150.949219 196.679688 153.636719 197.992188 155.628906 C 196.671875 153.625 193.984375 153.082031 191.988281 154.398438 C 193.984375 153.082031 194.535156 150.386719 193.222656 148.394531 Z M 193.222656 148.394531 " fill-opacity="1" fill-rule="nonzero"/></g></g></g><g clip-path="url(#6660949f7b)"><g clip-path="url(#381201052b)"><g clip-path="url(#c9d8798413)"><path fill="#000000" d="M 222.824219 151.5625 C 224.148438 153.570312 226.835938 154.109375 228.828125 152.796875 C 226.824219 154.117188 226.28125 156.804688 227.597656 158.800781 C 226.273438 156.792969 223.585938 156.253906 221.59375 157.566406 C 223.585938 156.253906 224.140625 153.558594 222.824219 151.5625 Z M 222.824219 151.5625 " fill-opacity="1" fill-rule="nonzero"/></g></g></g><g clip-path="url(#9c96bf2762)"><g clip-path="url(#0d798ae9ce)"><g clip-path="url(#75e430e7e9)"><path fill="#000000" d="M 179.824219 173.042969 C 180.644531 174.285156 182.320312 174.628906 183.5625 173.808594 C 182.320312 174.628906 181.976562 176.300781 182.796875 177.542969 C 181.976562 176.300781 180.300781 175.957031 179.058594 176.777344 C 180.300781 175.957031 180.644531 174.285156 179.824219 173.042969 Z M 179.824219 173.042969 " fill-opacity="1" fill-rule="nonzero"/></g></g></g><g clip-path="url(#a9e186426d)"><g clip-path="url(#e7aa2677f7)"><g clip-path="url(#295f429ff9)"><path fill="#000000" d="M 196.769531 195.566406 C 197.300781 196.375 198.378906 196.59375 199.1875 196.0625 C 198.378906 196.59375 198.160156 197.671875 198.691406 198.480469 C 198.160156 197.671875 197.082031 197.453125 196.273438 197.984375 C 197.082031 197.453125 197.300781 196.375 196.769531 195.566406 Z M 196.769531 195.566406 " fill-opacity="1" fill-rule="nonzero"/></g></g></g><g clip-path="url(#99527f8772)"><g clip-path="url(#c7c7137bd5)"><g clip-path="url(#cc2be23c53)"><path fill="#000000" d="M 206.042969 160.527344 C 206.574219 161.332031 207.652344 161.554688 208.460938 161.019531 C 207.652344 161.554688 207.433594 162.632812 207.964844 163.4375 C 207.433594 162.632812 206.355469 162.410156 205.546875 162.941406 C 206.359375 162.421875 206.574219 161.332031 206.042969 160.527344 Z M 206.042969 160.527344 " fill-opacity="1" fill-rule="nonzero"/></g></g></g><g clip-path="url(#c55442980d)"><g clip-path="url(#4d375706d0)"><g clip-path="url(#389cb15675)"><path fill="#000000" d="M 189.472656 227.683594 C 188.953125 224.21875 185.730469 221.8125 182.261719 222.332031 C 185.730469 221.8125 188.132812 218.585938 187.617188 215.121094 C 188.132812 218.585938 191.359375 220.992188 194.824219 220.472656 C 191.359375 220.992188 188.953125 224.21875 189.472656 227.683594 Z M 189.472656 227.683594 " fill-opacity="1" fill-rule="nonzero"/></g></g></g><g clip-path="url(#855ebbdc7e)"><g clip-path="url(#729f31df5c)"><g clip-path="url(#882a4c1bc7)"><path fill="#000000" d="M 155.390625 199.664062 C 154.46875 198.265625 152.589844 197.878906 151.191406 198.804688 C 152.589844 197.878906 152.976562 196.003906 152.050781 194.601562 C 152.976562 196.003906 154.851562 196.390625 156.253906 195.464844 C 154.851562 196.390625 154.46875 198.265625 155.390625 199.664062 Z M 155.390625 199.664062 " fill-opacity="1" fill-rule="nonzero"/></g></g></g><g clip-path="url(#450f227578)"><g clip-path="url(#b25d1af612)"><g clip-path="url(#069bd69d16)"><path fill="#000000" d="M 213.414062 153.863281 C 212.003906 152.769531 207.726562 155.621094 201.925781 161.152344 C 209.542969 153.523438 215.265625 149.382812 217.007812 150.738281 C 220.199219 153.214844 208.960938 173.015625 191.914062 194.976562 C 174.867188 216.9375 158.460938 232.738281 155.269531 230.261719 C 153.527344 228.90625 156.109375 222.347656 161.609375 213.066406 C 157.683594 220.058594 155.984375 224.90625 157.394531 226 C 160.285156 228.242188 175.167969 213.910156 190.632812 193.988281 C 206.109375 174.078125 216.304688 156.105469 213.414062 153.863281 Z M 213.414062 153.863281 " fill-opacity="1" fill-rule="nonzero"/></g></g></g><g clip-path="url(#61d9f264c0)"><g clip-path="url(#b69c2d6c8f)"><g clip-path="url(#fb3d0bd331)"><path fill="#000000" d="M 201.910156 166.835938 C 201.050781 166.164062 198.457031 167.90625 194.929688 171.261719 C 199.554688 166.621094 203.03125 164.121094 204.089844 164.949219 C 206.027344 166.449219 199.203125 178.472656 188.851562 191.820312 C 178.492188 205.160156 168.535156 214.75 166.597656 213.246094 C 165.539062 212.421875 167.109375 208.441406 170.445312 202.804688 C 168.070312 207.050781 167.023438 209.992188 167.882812 210.664062 C 169.636719 212.03125 178.675781 203.320312 188.074219 191.226562 C 197.472656 179.113281 203.664062 168.199219 201.910156 166.835938 Z M 201.910156 166.835938 " fill-opacity="1" fill-rule="nonzero"/></g></g></g><g clip-path="url(#72282d2ab4)"><g clip-path="url(#4c2a0a4b7f)"><g clip-path="url(#5be14984be)"><path fill="#000000" d="M 193.226562 176.691406 C 192.785156 176.339844 191.4375 177.246094 189.609375 178.980469 C 192.007812 176.578125 193.804688 175.28125 194.359375 175.703125 C 195.359375 176.492188 191.824219 182.710938 186.464844 189.617188 C 181.105469 196.527344 175.945312 201.492188 174.9375 200.722656 C 174.386719 200.300781 175.207031 198.230469 176.929688 195.3125 C 175.695312 197.507812 175.160156 199.035156 175.601562 199.386719 C 176.511719 200.085938 181.195312 195.585938 186.054688 189.3125 C 190.925781 183.046875 194.125 177.398438 193.226562 176.691406 Z M 193.226562 176.691406 " fill-opacity="1" fill-rule="nonzero"/></g></g></g></svg>